# xmcd CD database file
#
# Track frame offsets:
#	150
#	16538
#	39816
#	56678
#	71250
#
# Disc length: 1170 seconds
#
# Revision: 0
# Processed by: cddbd v1.5.2PL0 Copyright (c) Steve Scherf et al.
# Submitted via: CDex 1.79
#
DISCID=2d049005
DTITLE=Jared James Nichols - Highwayman
DYEAR=2015
DGENRE=Blues
TTITLE0=We're an American Band 
TTITLE1=Old Glory
TTITLE2=30 Days in the Hole 
TTITLE3=Fallin'down
TTITLE4=Gone
EXTD=YEAR: 2015
EXTT0=
EXTT1=
EXTT2=
EXTT3=
EXTT4=
PLAYORDER=
